<svg xmlns="http://www.w3.org/2000/svg" width="682.667" height="682.667" preserveAspectRatio="xMidYMid meet" version="1.0" viewBox="0 0 512 512"><g fill="#000" stroke="none"><path d="M0 2560 l0 -2560 2560 0 2560 0 0 2560 0 2560 -2560 0 -2560 0 0 -2560z m3699 1049 l220 -152 -73 -106 c-1028 -1485 -1486 -2142 -1491 -2144 -9 -3 -1204 925 -1204 935 -1 9 327 432 337 435 4 2 171 -125 372 -282 201 -157 367 -285 370 -285 3 0 280 396 615 880 373 538 615 878 622 875 7 -2 112 -73 232 -156z" transform="translate(0.000000,512.000000) scale(0.100000,-0.100000)"/></g></svg>